<svg xmlns="http://www.w3.org/2000/svg" viewBox="-189 -4 220.048 69.004" width="220.048" height="69.004"><path d="M-182.9 53.604h-4.4v2.2h4.1v1.8h-4.1v2.6h4.6v1.8h-6.3v-10.1h6.1c0-.1 0 1.7 0 1.7zm15.9 8.3h-1.6v-4.6c0-1.1-.4-1.5-.9-1.5-.8 0-1.1.6-1.1 1.5v4.5h-1.6v-4.5c0-.6 0-1.5-1-1.5-.8 0-1 .6-1 1.5v4.6h-1.6v-7.5h1.5v1.1c.2-.5.7-1.3 1.8-1.3.9 0 1.3.4 1.7 1.2.2-.3.7-1.2 1.6-1.2 1.2 0 2.2.8 2.2 2.5v5.2zm8.5-6.4h0c.3-.6.8-1.3 1.9-1.3 1.4 0 2.5 1.2 2.5 3.8 0 2-.8 4-2.6 4-1.1 0-1.5-.7-1.8-1.1h0v3.9h-1.5v-10.5h1.5v1.2h0zm1.4 5c1 0 1.4-1.4 1.4-2.3 0-1.2-.3-2.3-1.4-2.3s-1.4 1.2-1.4 2.4.4 2.2 1.4 2.2zm12.5 1.7c-1.6 0-3.2-1.2-3.2-4s1.5-4 3.2-4c1.6 0 3.2 1.2 3.2 4s-1.5 4-3.2 4zm0-6.3c-1.2 0-1.5 1.3-1.5 2.3s.2 2.3 1.5 2.3 1.5-1.3 1.5-2.3-.2-2.3-1.5-2.3h0zm16.1 6h-1.7l-1-5.5-1 5.5h-1.7l-1.8-7.5h1.8l1 5.4.8-5.4h1.6l.9 5.4 1-5.4h1.7l-1.6 7.5zm20.1-7.5h1.5v1.3c.3-.7.7-1.5 1.7-1.5h.3v2h-.5c-1.2 0-1.5 1-1.5 1.8v3.9h-1.6l.1-7.5h0zm11.8-.9h-1.6v-1.8h1.6v1.8zm0 .9v7.5h-1.6v-7.5h1.6zm12.7 7.5h-1.6v-4.6c0-.6 0-1.5-1.1-1.5-.7 0-1.3.6-1.3 1.8v4.3h-1.6v-7.5h1.5v1.1c.2-.5.7-1.3 1.9-1.3s2.2.8 2.2 2.5v5.3-.1zm12.7-7.5v7.1c0 1.3-.1 3.5-3.1 3.5-1.3 0-2.6-.7-2.7-2.3h1.8c.1.4.2.7 1.1.7.8 0 1.3-.5 1.3-1.7v-.9c-.3.6-.7 1.1-1.6 1.1-1.5 0-2.7-1.2-2.7-3.9 0-2.6 1.2-3.8 2.5-3.8 1.1 0 1.6.8 1.8 1.3h0v-1.1h1.6 0zm-3 5.9c1.1 0 1.4-1.1 1.4-2.2 0-1.2-.5-2.2-1.4-2.2-.6 0-1.3.5-1.3 2.3 0 1 .3 2.1 1.3 2.1h0zm20.6 1.6h-1.8v-10.1h3.8c1.6 0 2.6 1.2 2.6 3.2 0 .9-.4 3.2-2.7 3.2h-2l.1 3.7zm1.6-5.4c1.3 0 1.3-1.1 1.3-1.6 0-1-.5-1.4-1.5-1.4h-1.4v3h1.6zm14.4 4c0 .9.2 1.1.3 1.2v.3h-1.8c-.1-.3-.1-.5-.2-.9-.4.5-.9 1.1-2 1.1-.9 0-1.9-.6-1.9-2.2 0-1.5.8-2.2 1.8-2.4l1.5-.3c.3-.1.6-.2.6-.6 0-.8-.6-.8-1.1-.8-.8 0-1 .6-1 1h-1.5c.2-2.3 1.5-2.6 2.8-2.6.8 0 2.4.3 2.4 2.2l.1 4zm-1.6-2.2c-.2.2-.5.3-1.1.4s-1.1.3-1.1 1.1c0 .7.5.9.7.9.7 0 1.5-.6 1.5-1.5v-.9h0zm11.7 3.5c-.8 2.8-1 3.2-2.4 3.2h-.7v-1.6c.1 0 .2.1.3.1.6 0 .9-.1 1.1-1.1l-2.3-7.8h1.8l1.3 5.5 1.2-5.5h1.7c.1-.1-2 7.2-2 7.2zm17.4.1h-1.6v-4.6c0-1.1-.4-1.5-.9-1.5-.8 0-1.1.6-1.1 1.5v4.5h-1.6v-4.5c0-.6 0-1.5-1-1.5-.8 0-1 .6-1 1.5v4.6H-19v-7.5h1.5v1.1c.2-.5.7-1.3 1.8-1.3.9 0 1.3.4 1.7 1.2.2-.3.7-1.2 1.6-1.2 1.2 0 2.2.8 2.2 2.5v5.3h.1v-.1zm24.7 0H13v-4.6c0-.6 0-1.5-1.1-1.5-.7 0-1.3.6-1.3 1.8v4.3H9v-7.5h1.5v1.1c.2-.5.7-1.3 1.9-1.3s2.2.8 2.2 2.5v5.3-.1zm8.8-7.5h1v1.4h-1v4.1c0 .5 0 .6.7.6.1 0 .2 0 .3-.1v1.5c-.3 0-.5.1-.8.1h-.2c-1.4 0-1.6-.7-1.6-1.6v-4.6H21v-1.4h.8v-2h1.6v2zm-138.5 5.3c-.5 1.8-1.6 2.4-2.7 2.4-1.8 0-3.1-1-3.1-4.1 0-.9.3-3.8 2.9-3.8 1.2 0 2.9.7 2.9 4.1v.3h-4.2c.1.6.1 1.8 1.5 1.8.5 0 .9-.3 1-.8h1.7v.1h0zm-1.6-2.3c-.1-1.2-.7-1.6-1.2-1.6-.8 0-1.2.6-1.2 1.6h2.4zm119.1 2.3c-.5 1.8-1.6 2.4-2.7 2.4-1.8 0-3.1-1-3.1-4.1 0-.9.3-3.8 2.9-3.8 1.2 0 2.9.7 2.9 4.1v.3h-4.2c.1.6.1 1.8 1.5 1.8.5 0 .9-.3 1-.8h1.7v.1h0zm-1.6-2.3c-.1-1.2-.7-1.6-1.2-1.6-.8 0-1.2.6-1.2 1.6H.8z" fill="#878787"></path><path d="M30.9 6.504c.3.6.1 1.3-.2 1.9-.5.8-1.4 1.4-2.2 1.9-1.6 1-3.3 1.6-5 2.3-4.1 1.4-8.4 2.4-12.6 3.3-2.8.6-5.7 1.1-8.5 1.5-.5.1-1 .2-1.5.1 4.5-.8 9-1.7 13.4-2.8 3.7-.9 7.4-1.9 11-3.3 1.6-.7 3.2-1.4 4.5-2.5.6-.6 1.2-1.5 1.1-2.4h0z" fill="#ececed"></path><path d="M-156.1 10.804c2.3-.2 4.6.2 6.6 1.4 1.3.7 2.3 1.9 2.9 3.3.7 1.4 1 2.9.9 4.5v18.2c.1 1.3-.2 2.6-.6 3.8-.6 1.5-1.5 2.9-2.9 3.9-1.4.9-3 1.4-4.6 1.6-2 .2-4.1 0-6-.9-1.8-.8-3.1-2.3-3.8-4-.6-1.4-.8-3.1-.8-4.6v-15.5c0-1.9-.2-3.9.5-5.8.6-1.9 1.8-3.6 3.5-4.6 1.2-.8 2.7-1.2 4.3-1.3h0zm.1 5.4c-.7.1-1.3.4-1.7 1-.5.7-.6 1.7-.6 2.6v18.7c0 .9.1 1.9.7 2.7s1.5 1 2.4 1c.9.1 2-.1 2.6-.8.7-.7.7-1.8.8-2.8v-18.3c0-.5-.1-1-.1-1.5-.1-.8-.5-1.7-1.2-2.2-.9-.5-2-.5-2.9-.4h0zm-32.8-4.9c1.9-.1 3.8 0 5.7 0l2.5 6.8 5.1 13.5v-20.3h5.5v35.7h-5.3l-7.9-22.2v22.2h-5.5c-.1 0-.1-35.7-.1-35.7zm47 0h6l4.5 24.8c.1-.1 2.7-14.5 4-21.7l.6-3.1h6.1l-7.5 35.7h-6.2l-5.9-28.5c-.2-.8-1.3-5.5-1.6-7.2zm28.4 0h7.6l5.3 28.8 1.2 6.9h-5.9l-.7-5-.4-2.9h-6.7l-1.1 7.9h-5.9l5.7-31 .9-4.7zm1.3 22.5h5l-2.5-15.3c-.2.3-1.7 10.5-2.5 15.3h0zm17.6-22.5h6.1v30.3h9.7v5.4h-15.8v-35.7z" fill="#0082c8"></path><path d="M16.8 27.204c.8-.6 1.8-.8 2.8-.8 1.2 0 2.4.4 3.3 1.2 1.4 1.4 1.9 3.4 2.1 5.3h-2.2c-.1-1.1-.2-2.2-.7-3.2-.3-.7-1-1.3-1.8-1.5-.7-.1-1.4-.1-2 .2-.7.4-1.2 1.1-1.5 1.8-.5 1.2-.6 2.5-.7 3.7l-.1 4.3c.1 1 .1 2 .3 2.9.2 1 .4 1.9 1 2.8.4.6 1 1.1 1.7 1.2 1 .1 2 .1 2.8-.6.7-.6 1-1.5 1-2.4v-3h-2.7v-1.9H25v9.5h-1.4l-.3-1.5c-.5.5-.9 1-1.5 1.2-1.2.6-2.8.6-4.1.2-1.5-.6-2.4-1.9-2.9-3.3-1-2.7-.9-5.7-.8-8.5.1-1.7.3-3.4.9-5 .3-.9 1-1.9 1.9-2.6h0 0zm-13.4-.5h3l3 13.6 1.4 6.6H8.6l-.6-3.2-.6-2.9H2.3c-.3 1-.4 2-.6 2.9l-.6 3.1h-2.2l4.5-20.1h0zm.9 4.6l-1.6 7.8h4.5l-.8-3.8-1.5-7.1c-.3 1-.4 2.1-.6 3.1h0zm-74-35c11.2-.3 22.4-.4 33.6-.2 11.1.2 22.1.8 33.1 1.8 5.2.5 10.3 1.1 15.4 1.9 4.3.7 8.5 1.5 12.7 2.9 1.7.6 3.4 1.2 4.8 2.4.5.4.8.9 1 1.5.2 1-.5 1.8-1.1 2.4-1.3 1.1-2.9 1.8-4.5 2.5-3.6 1.4-7.2 2.4-11 3.3-4.4 1.1-8.9 1.9-13.4 2.8-.9.2-1.8.3-2.7.5 4.2-1 8.5-2 12.6-3.5 1.6-.6 3.2-1.2 4.7-2.1.8-.5 1.6-1 2.2-1.8.4-.6.7-1.3.4-2-.3-.8-1.1-1.5-1.9-1.9-1.5-1-3.2-1.5-4.8-2.1-4.1-1.3-8.2-2-12.4-2.8-5.3-.8-10.6-1.5-15.9-1.9-10.9-1-21.9-1.5-32.9-1.7-1.1 0-2.1-.1-3.2-.1-5.9-.1-11.8-.1-17.8 0-2.1.1-4.2 0-6.3.2-1.9 0-3.8.1-5.8.2-1.1.1-2.1.1-3.2.1l-20.7 1.2c-10.2.8-20.4 1.9-30.5 3.5-4.5.7-9.1 1.5-13.5 2.4-.6.1-1.1.3-1.8.3 10.4-2.7 21.1-4.4 31.8-5.8 17-2.3 34.1-3.5 51.1-4h0 0z" fill="#878787"></path><path d="M-73.5 11.304h5.9l1.1 3.2 6.3 17.2v-20.4h5.5v35.7h-5.4c-.2-.9-6.6-18.9-7.8-22.1-.1 1.1 0 15.8 0 22.1h-5.7l.1-35.7zm25.3 0h17.1v5.3l-4.1.1H-42v9.1h7.9v5.4H-42v10.4h10.9v5.4h-17l-.1-35.7zm21 0H-9v5.3c-2 .1-4 0-6 .1v30.3h-6.2v-30.3c-2-.1-4 .1-6-.1v-5.3z" fill="#0082c8"></path></svg>